<svg width="357" height="153" viewBox="0 0 357 153" fill="none" xmlns="http://www.w3.org/2000/svg">
<rect width="357" height="153" fill="#DBDBDB"/>
<rect x="20" y="40" width="213" height="73" rx="30" fill="white"/>
<path d="M113.818 64.7273H117.182L125.091 84.0455H125.364L133.273 64.7273H136.636V88H134V70.3182H133.773L126.5 88H123.955L116.682 70.3182H116.455V88H113.818V64.7273ZM143.241 88H140.287L148.832 64.7273H151.741L160.287 88H157.332L150.378 68.4091H150.196L143.241 88ZM144.332 78.9091H156.241V81.4091H144.332V78.9091ZM162.679 64.7273L169.588 84.3182H169.861L176.77 64.7273H179.724L171.179 88H168.27L159.724 64.7273H162.679ZM186.168 64.7273V88H183.349V64.7273H186.168ZM210.273 64.7273V88H207.545L194.864 69.7273H194.636V88H191.818V64.7273H194.545L207.273 83.0455H207.5V64.7273H210.273Z" fill="black"/>
<path d="M60 55.9091C60 54.3024 61.3552 53 63.027 53H70.973C72.6448 53 74 54.3024 74 55.9091V62.0909C74 63.6976 72.6448 65 70.973 65H63.027C61.3552 65 60 63.6976 60 62.0909V55.9091Z" fill="#FF7700"/>
<path d="M294 58.9091C294 57.3024 295.355 56 297.027 56H304.973C306.645 56 308 57.3024 308 58.9091V65.0909C308 66.6976 306.645 68 304.973 68H297.027C295.355 68 294 66.6976 294 65.0909V58.9091Z" fill="#FF7700"/>
<ellipse cx="50.5" cy="89" rx="4.5" ry="4" fill="#FF7700"/>
<ellipse cx="284.5" cy="92" rx="4.5" ry="4" fill="#FF7700"/>
<ellipse cx="85.5" cy="89" rx="4.5" ry="4" fill="#FF7700"/>
<ellipse cx="319.5" cy="92" rx="4.5" ry="4" fill="#FF7700"/>
<path d="M73.6694 65C79.313 65 84.0502 68.8533 85.363 74.0564L93.1827 75.7562C94.0087 75.9357 94.7644 76.2768 95.4207 76.7403L94.5885 78.4532C94.0342 79.5943 94.9977 80.8845 96.2576 80.6881L97.8657 80.4372C97.9532 80.847 98 81.2704 98 81.7029V87.429C97.9999 88.2966 97.2921 89 96.4189 89H91C91 86 89 84 85.363 84C83 84 80.1042 85.9403 80 89H56.1419C56.2494 86.5 53.6528 84 50.5 84C47.5295 84 45.2671 86.1265 44.9699 89H40.5811C39.7079 89 39.0001 88.2966 39 87.429V81.4958C39.0001 78.7927 40.9777 76.4904 43.6645 76.0657L47.7113 75.426H47.7133C47.8089 69.6517 52.5493 65 58.3836 65H73.6694ZM56.8187 80.7375C56.6001 80.7376 56.4227 80.9138 56.4227 81.131C56.4227 81.3483 56.6001 81.5245 56.8187 81.5245H77.0137C77.2323 81.5245 77.4094 81.3483 77.4094 81.131C77.4094 80.9138 77.2323 80.7376 77.0137 80.7375H56.8187ZM58.074 68.1477C54.5378 68.1477 51.671 70.9961 51.671 74.5097C51.6711 75.1245 52.1728 75.623 52.7916 75.6231H64.7384V68.1477H58.074ZM69.4901 75.6231H81.7654C81.7654 71.4946 78.3969 68.1477 74.2418 68.1477H69.4901V75.6231Z" fill="#23687B"/>
<path d="M307.669 68C313.313 68 318.05 71.8533 319.363 77.0564L327.183 78.7562C328.009 78.9357 328.764 79.2768 329.421 79.7403L328.588 81.4532C328.034 82.5943 328.998 83.8845 330.258 83.6881L331.866 83.4372C331.953 83.847 332 84.2704 332 84.7029V90.429C332 91.2966 331.292 92 330.419 92H325C325 89 323 87 319.363 87C317 87 314.104 88.9403 314 92H290.142C290.249 89.5 287.653 87 284.5 87C281.53 87 279.267 89.1265 278.97 92H274.581C273.708 92 273 91.2966 273 90.429V84.4958C273 81.7927 274.978 79.4904 277.664 79.0657L281.711 78.426H281.713C281.809 72.6517 286.549 68 292.384 68H307.669ZM290.819 83.7375C290.6 83.7376 290.423 83.9138 290.423 84.131C290.423 84.3483 290.6 84.5245 290.819 84.5245H311.014C311.232 84.5245 311.409 84.3483 311.409 84.131C311.409 83.9138 311.232 83.7376 311.014 83.7375H290.819ZM292.074 71.1477C288.538 71.1477 285.671 73.9961 285.671 77.5097C285.671 78.1245 286.173 78.623 286.792 78.6231H298.738V71.1477H292.074ZM303.49 78.6231H315.765C315.765 74.4946 312.397 71.1477 308.242 71.1477H303.49V78.6231Z" fill="#23687B"/>
</svg>
