<svg width="317" height="95" viewBox="0 0 317 95" fill="none" xmlns="http://www.w3.org/2000/svg">
<rect width="317" height="95" fill="#DBDBDB"/>
<rect x="6" y="11" width="213" height="73" rx="30" fill="white"/>
<path d="M99.8182 35.7273H103.182L111.091 55.0455H111.364L119.273 35.7273H122.636V59H120V41.3182H119.773L112.5 59H109.955L102.682 41.3182H102.455V59H99.8182V35.7273ZM129.241 59H126.287L134.832 35.7273H137.741L146.287 59H143.332L136.378 39.4091H136.196L129.241 59ZM130.332 49.9091H142.241V52.4091H130.332V49.9091ZM148.679 35.7273L155.588 55.3182H155.861L162.77 35.7273H165.724L157.179 59H154.27L145.724 35.7273H148.679ZM172.168 35.7273V59H169.349V35.7273H172.168ZM196.273 35.7273V59H193.545L180.864 40.7273H180.636V59H177.818V35.7273H180.545L193.273 54.0455H193.5V35.7273H196.273Z" fill="black"/>
<path d="M84 63.5713H70.4023L61.0293 49.6436L54.001 60.085L46.9736 49.6436L37.6006 63.5713H24L43.0674 30.3574L54 49.3994L64.9316 30.3574L84 63.5713Z" fill="#FF7700"/>
<path d="M53.5 44L45.2728 29.75H61.7272L53.5 44Z" fill="#23687B"/>
<path d="M302 63.5713H288.402L279.029 49.6436L272.001 60.085L264.974 49.6436L255.601 63.5713H242L261.067 30.3574L272 49.3994L282.932 30.3574L302 63.5713Z" fill="#FF7700"/>
<path d="M271.5 44L263.273 29.75H279.727L271.5 44Z" fill="#23687B"/>
</svg>
