<svg width="281" height="408" viewBox="0 0 281 408" fill="none" xmlns="http://www.w3.org/2000/svg">
<rect width="281" height="408" fill="white"/>
<rect x="33" y="74" width="172" height="47" rx="20" fill="#D9D9D9"/>
<rect x="33" y="320" width="172" height="47" rx="20" fill="#D9D9D9"/>
<path d="M60.784 350.808C60.064 350.968 59.344 351.048 58.624 351.048C57.904 351.064 57.176 350.968 56.44 350.76C55.72 350.536 55.104 350.208 54.592 349.776C54.256 349.44 53.952 348.976 53.68 348.384L53.416 347.832C53.336 347.656 53.264 347.52 53.2 347.424C52.96 347.056 52.896 346.712 53.008 346.392C53.136 346.056 53.352 345.8 53.656 345.624C53.96 345.448 54.288 345.384 54.64 345.432C54.992 345.48 55.288 345.688 55.528 346.056L55.864 346.68L56.104 347.208C56.232 347.48 56.352 347.664 56.464 347.76C56.736 348.016 57.2 348.192 57.856 348.288C58.512 348.384 59.304 348.344 60.232 348.168C61.064 347.976 61.752 347.704 62.296 347.352C62.84 346.984 63.176 346.616 63.304 346.248C63.4 345.928 63.304 345.488 63.016 344.928C62.712 344.32 62.36 343.896 61.96 343.656C61.784 343.56 61.36 343.448 60.688 343.32H60.664C60.648 343.336 60.544 343.36 60.352 343.392C60.16 343.408 59.944 343.424 59.704 343.44C59.48 343.44 59.28 343.416 59.104 343.368C58.496 343.192 58.104 342.808 57.928 342.216C57.768 341.72 57.856 341.288 58.192 340.92C58.304 340.76 58.456 340.64 58.648 340.56C58.76 340.512 58.88 340.472 59.008 340.44C59.088 340.44 59.192 340.432 59.32 340.416C59.672 340.368 59.92 340.336 60.064 340.32C60.736 340.208 61.248 340.04 61.6 339.816C61.968 339.576 62.192 339.36 62.272 339.168C62.352 338.96 62.352 338.544 62.272 337.92C62.224 337.456 61.976 337.08 61.528 336.792C61.096 336.504 60.48 336.36 59.68 336.36C58.848 336.36 58.104 336.512 57.448 336.816C56.808 337.12 56.384 337.472 56.176 337.872V338.064C56.176 338.096 56.176 338.128 56.176 338.16C56.16 338.192 56.152 338.232 56.152 338.28V338.376C56.136 338.568 56.112 338.728 56.08 338.856C56 339.288 55.808 339.592 55.504 339.768C55.2 339.928 54.872 339.984 54.52 339.936C54.168 339.872 53.872 339.704 53.632 339.432C53.408 339.16 53.336 338.808 53.416 338.376C53.416 338.328 53.424 338.256 53.44 338.16C53.456 337.92 53.464 337.792 53.464 337.776C53.512 337.344 53.616 336.976 53.776 336.672C54.096 336 54.568 335.44 55.192 334.992C55.816 334.544 56.52 334.208 57.304 333.984C58.088 333.76 58.88 333.648 59.68 333.648C60.496 333.648 61.288 333.792 62.056 334.08C62.84 334.352 63.496 334.784 64.024 335.376C64.568 335.952 64.88 336.688 64.96 337.584C65.088 338.64 65.04 339.488 64.816 340.128C64.592 340.688 64.224 341.184 63.712 341.616C64.416 342.128 64.984 342.816 65.416 343.68C66.056 344.912 66.208 346.04 65.872 347.064C65.552 348.04 64.912 348.848 63.952 349.488C63.008 350.112 61.952 350.552 60.784 350.808ZM78.7908 350.112L77.1828 346.44H77.0388C76.6228 346.472 76.2308 346.496 75.8628 346.512L74.9988 346.536C74.9028 346.536 74.7508 346.544 74.5428 346.56C74.3348 346.576 74.1268 346.592 73.9188 346.608C73.7268 346.624 73.5828 346.632 73.4868 346.632H73.1748C73.1108 346.632 72.9108 346.632 72.5748 346.632C72.2548 346.632 72.0068 346.632 71.8308 346.632H71.0628C70.5188 347.8 70.0548 348.936 69.6708 350.04C69.4948 350.488 69.2228 350.784 68.8548 350.928C68.5028 351.056 68.1428 351.056 67.7748 350.928C67.4068 350.8 67.1188 350.576 66.9108 350.256C66.7188 349.92 66.6947 349.512 66.8388 349.032C67.2068 348.136 67.6228 347.128 68.0868 346.008L69.7188 342.12L71.0628 338.904C71.1588 338.68 71.2788 338.376 71.4228 337.992C71.5828 337.592 71.7268 337.216 71.8548 336.864C71.9828 336.496 72.0708 336.248 72.1188 336.12C72.3268 335.592 72.5028 335.192 72.6468 334.92C72.7748 334.68 72.9108 334.488 73.0547 334.344C73.4868 333.832 74.0148 333.64 74.6388 333.768C74.9428 333.832 75.2148 333.976 75.4548 334.2C75.5508 334.296 75.6388 334.408 75.7188 334.536C75.8148 334.68 75.9188 334.864 76.0308 335.088C76.1908 335.392 76.3748 335.808 76.5828 336.336L77.3748 338.424C79.1988 343.4 80.5828 346.896 81.5268 348.912C81.7508 349.232 81.8228 349.536 81.7428 349.824C81.6788 350.112 81.5188 350.352 81.2628 350.544C81.0228 350.736 80.7348 350.864 80.3988 350.928C80.0788 350.992 79.7668 350.968 79.4628 350.856C79.1748 350.728 78.9508 350.48 78.7908 350.112ZM72.3108 343.656C72.7908 343.656 74.0388 343.6 76.0548 343.488L74.5428 339.48L74.3268 338.808L73.8468 340.056L72.3108 343.656ZM85.4862 350.904C85.3102 350.904 85.1422 350.864 84.9822 350.784C84.6302 350.752 84.3262 350.608 84.0702 350.352C83.8142 350.08 83.6862 349.768 83.6862 349.416C83.5262 344.936 83.4942 340.32 83.5902 335.568C83.5902 335.216 83.6942 334.912 83.9022 334.656C84.1262 334.384 84.3982 334.216 84.7182 334.152C84.7662 334.136 84.8142 334.128 84.8622 334.128L85.5822 334.008C86.0462 333.912 86.3342 333.856 86.4462 333.84C86.5422 333.84 86.8302 333.8 87.3102 333.72C87.5662 333.688 87.8942 333.664 88.2942 333.648C88.7102 333.616 89.1022 333.6 89.4702 333.6C89.8382 333.6 90.1102 333.616 90.2862 333.648L91.2462 333.84C91.5982 333.92 91.9342 334.024 92.2542 334.152C92.5742 334.296 92.8782 334.464 93.1662 334.656C94.0942 335.232 94.7662 335.928 95.1822 336.744C95.5822 337.56 95.6782 338.376 95.4702 339.192C95.2622 340.008 94.7902 340.784 94.0542 341.52C94.1982 341.632 94.3502 341.752 94.5102 341.88C95.2142 342.536 95.7022 343.272 95.9742 344.088C96.2462 344.936 96.2782 345.776 96.0702 346.608C95.8942 347.392 95.5342 348.112 94.9902 348.768C94.4462 349.408 93.7902 349.92 93.0222 350.304C92.5582 350.512 92.0622 350.68 91.5342 350.808C91.0062 350.936 90.4302 351.008 89.8062 351.024C89.3902 351.056 88.9022 351.064 88.3422 351.048C87.7822 351.032 87.2382 351.016 86.7102 351C86.1982 350.968 85.7902 350.936 85.4862 350.904ZM86.5422 348.072C87.1662 348.136 87.8062 348.176 88.4622 348.192C89.1182 348.192 89.7342 348.16 90.3102 348.096C90.8862 348.016 91.3662 347.888 91.7502 347.712C92.5822 347.296 93.0862 346.712 93.2622 345.96C93.4222 345.256 93.1822 344.624 92.5422 344.064C92.3662 343.888 92.1982 343.752 92.0382 343.656C91.8942 343.56 91.7022 343.496 91.4622 343.464C91.2702 343.432 91.0142 343.424 90.6942 343.44C90.3902 343.44 90.0782 343.448 89.7582 343.464C89.4382 343.464 89.1742 343.464 88.9662 343.464C88.8222 343.48 88.6782 343.464 88.5342 343.416C88.4222 343.432 88.0622 343.432 87.4542 343.416C86.8462 343.4 86.5102 343.392 86.4462 343.392C86.4622 344.992 86.4942 346.552 86.5422 348.072ZM86.4222 340.512C86.5982 340.512 86.9502 340.512 87.4782 340.512C88.0062 340.528 88.3582 340.528 88.5342 340.512C88.9022 340.496 89.3182 340.456 89.7822 340.392C90.2462 340.328 90.6462 340.224 90.9822 340.08C91.4622 339.856 91.8462 339.6 92.1342 339.312C92.4222 339.024 92.5902 338.744 92.6382 338.472C92.7662 338.056 92.4302 337.6 91.6302 337.104C91.0222 336.736 90.2462 336.544 89.3022 336.528C88.3742 336.512 87.4302 336.6 86.4702 336.792C86.4382 337.976 86.4222 339.216 86.4222 340.512ZM110.726 351.024C108.198 351.024 104.95 350.984 100.982 350.904C100.566 350.904 100.214 350.76 99.9263 350.472C99.6383 350.168 99.5023 349.808 99.5183 349.392C99.5183 349.248 99.5343 349.112 99.5663 348.984C99.0543 344.776 98.8383 340.376 98.9183 335.784C98.8863 335.64 98.8703 335.488 98.8703 335.328C98.8703 334.928 99.0143 334.584 99.3023 334.296C99.6063 333.992 99.9663 333.848 100.382 333.864C102.158 333.88 105.486 333.888 110.366 333.888C110.862 333.888 111.23 334.04 111.47 334.344C111.71 334.632 111.83 334.976 111.83 335.376C111.83 335.776 111.71 336.128 111.47 336.432C111.23 336.72 110.862 336.864 110.366 336.864H101.894C101.894 338.16 101.91 339.416 101.942 340.632C103.526 340.664 106.11 340.64 109.694 340.56C110.19 340.544 110.558 340.688 110.798 340.992C111.054 341.28 111.182 341.624 111.182 342.024C111.198 342.424 111.086 342.776 110.846 343.08C110.606 343.384 110.238 343.536 109.742 343.536C106.254 343.616 103.702 343.648 102.086 343.632C102.182 344.96 102.302 346.4 102.446 347.952C105.678 348.016 108.438 348.048 110.726 348.048C111.222 348.048 111.59 348.2 111.83 348.504C112.07 348.792 112.19 349.136 112.19 349.536C112.19 349.936 112.07 350.288 111.83 350.592C111.59 350.88 111.222 351.024 110.726 351.024ZM115.127 349.56C115.127 349.032 115.127 348.392 115.127 347.64C115.127 346.888 115.119 346.128 115.103 345.36C115.103 344.592 115.103 343.904 115.103 343.296C115.103 342.288 115.079 341.208 115.031 340.056C114.983 338.904 114.919 337.816 114.839 336.792C114.567 336.552 114.407 336.248 114.359 335.88C114.295 335.336 114.463 334.896 114.863 334.56C115.119 334.064 115.519 333.792 116.063 333.744C116.415 333.712 116.743 333.792 117.047 333.984C117.767 333.872 118.551 333.776 119.399 333.696C120.263 333.616 121.135 333.624 122.015 333.72C122.911 333.8 123.759 334.032 124.559 334.416C125.311 334.8 125.959 335.36 126.503 336.096C127.063 336.816 127.455 337.592 127.679 338.424C127.887 339.272 127.831 340.144 127.511 341.04C127.207 341.936 126.615 342.712 125.735 343.368C124.663 344.168 123.167 344.568 121.247 344.568C120.655 344.568 119.951 344.528 119.135 344.448C119.007 344.432 118.663 344.392 118.103 344.328V349.56C118.119 350.056 117.975 350.424 117.671 350.664C117.383 350.904 117.039 351.024 116.639 351.024C116.239 351.04 115.887 350.928 115.583 350.688C115.279 350.432 115.127 350.056 115.127 349.56ZM121.271 341.568C122.519 341.568 123.415 341.368 123.959 340.968C124.391 340.632 124.647 340.216 124.727 339.72C124.807 339.224 124.719 338.736 124.463 338.256C124.207 337.776 123.791 337.392 123.215 337.104C122.767 336.864 122.231 336.712 121.607 336.648C121.175 336.616 120.783 336.608 120.431 336.624C120.095 336.624 119.727 336.656 119.327 336.72C118.927 336.768 118.439 336.832 117.863 336.912C117.959 338.24 118.023 339.704 118.055 341.304C118.167 341.32 118.375 341.344 118.679 341.376C118.999 341.408 119.255 341.432 119.447 341.448C120.167 341.528 120.775 341.568 121.271 341.568ZM147.975 351.648C147.495 351.648 147.119 351.448 146.847 351.048C145.727 351.096 144.495 351.128 143.151 351.144C141.807 351.176 140.431 351.176 139.023 351.144C137.631 351.128 136.263 351.088 134.919 351.024C133.575 350.96 132.327 350.856 131.175 350.712C130.807 350.664 130.503 350.496 130.263 350.208C130.039 349.904 129.943 349.56 129.975 349.176C130.007 348.92 130.103 348.696 130.263 348.504C130.263 347.88 130.271 347.168 130.287 346.368C130.303 345.568 130.319 344.76 130.335 343.944C130.367 343.128 130.391 342.376 130.407 341.688C130.407 341.128 130.391 340.488 130.359 339.768C130.327 339.032 130.271 338.288 130.191 337.536C130.111 336.784 129.999 336.112 129.855 335.52C129.759 335.088 129.823 334.736 130.047 334.464C130.271 334.176 130.559 334 130.911 333.936C131.263 333.856 131.599 333.904 131.919 334.08C132.239 334.24 132.447 334.544 132.543 334.992C132.687 335.68 132.799 336.424 132.879 337.224C132.975 338.024 133.039 338.8 133.071 339.552C133.119 340.288 133.143 340.912 133.143 341.424C133.143 341.808 133.135 342.328 133.119 342.984C133.119 343.64 133.103 344.328 133.071 345.048C133.055 345.752 133.039 346.392 133.023 346.968C133.007 347.528 132.999 347.92 132.999 348.144C134.679 348.288 136.543 348.376 138.591 348.408C138.623 347.416 138.639 346.352 138.639 345.216C138.655 344.064 138.655 342.904 138.639 341.736C138.623 340.552 138.575 339.416 138.495 338.328C138.431 337.224 138.327 336.24 138.183 335.376C138.103 334.928 138.183 334.576 138.423 334.32C138.663 334.064 138.959 333.912 139.311 333.864C139.679 333.8 140.015 333.864 140.319 334.056C140.623 334.232 140.807 334.544 140.871 334.992C141.015 335.84 141.119 336.672 141.183 337.488C141.263 338.304 141.319 339.28 141.351 340.416C141.367 341.568 141.383 342.392 141.399 342.888C141.399 343.48 141.391 344.12 141.375 344.808C141.375 345.48 141.367 346.136 141.351 346.776C141.335 347.4 141.327 347.944 141.327 348.408C142.415 348.408 144.191 348.376 146.655 348.312C146.671 347.784 146.719 346.856 146.799 345.528C146.863 344.2 146.903 343.176 146.919 342.456C147.031 339.24 146.887 336.92 146.487 335.496C146.375 335.064 146.423 334.704 146.631 334.416C146.839 334.128 147.119 333.944 147.471 333.864C147.823 333.768 148.159 333.8 148.479 333.96C148.799 334.104 149.015 334.392 149.127 334.824C149.607 336.504 149.783 339.072 149.655 342.528C149.639 343.264 149.591 344.352 149.511 345.792C149.431 347.248 149.383 348.304 149.367 348.96C149.495 349.168 149.559 349.392 149.559 349.632C149.559 349.904 149.487 350.16 149.343 350.4C149.311 350.752 149.159 351.048 148.887 351.288C148.631 351.528 148.327 351.648 147.975 351.648ZM165.242 351.024C162.714 351.024 159.466 350.984 155.498 350.904C155.082 350.904 154.73 350.76 154.442 350.472C154.154 350.168 154.018 349.808 154.034 349.392C154.034 349.248 154.05 349.112 154.082 348.984C153.57 344.776 153.354 340.376 153.434 335.784C153.402 335.64 153.386 335.488 153.386 335.328C153.386 334.928 153.53 334.584 153.818 334.296C154.122 333.992 154.482 333.848 154.898 333.864C156.674 333.88 160.002 333.888 164.882 333.888C165.378 333.888 165.746 334.04 165.986 334.344C166.226 334.632 166.346 334.976 166.346 335.376C166.346 335.776 166.226 336.128 165.986 336.432C165.746 336.72 165.378 336.864 164.882 336.864H156.41C156.41 338.16 156.426 339.416 156.458 340.632C158.042 340.664 160.626 340.64 164.21 340.56C164.706 340.544 165.074 340.688 165.314 340.992C165.57 341.28 165.698 341.624 165.698 342.024C165.714 342.424 165.602 342.776 165.362 343.08C165.122 343.384 164.754 343.536 164.258 343.536C160.77 343.616 158.218 343.648 156.602 343.632C156.698 344.96 156.818 346.4 156.962 347.952C160.194 348.016 162.954 348.048 165.242 348.048C165.738 348.048 166.106 348.2 166.346 348.504C166.586 348.792 166.706 349.136 166.706 349.536C166.706 349.936 166.586 350.288 166.346 350.592C166.106 350.88 165.738 351.024 165.242 351.024ZM169.571 349.608C169.491 348.2 169.403 345.776 169.307 342.336C169.275 342.192 169.259 342.048 169.259 341.904C169.259 341.776 169.267 341.656 169.283 341.544C169.203 338.808 169.115 336.744 169.019 335.352C168.987 334.856 169.115 334.48 169.403 334.224C169.691 333.952 170.027 333.808 170.411 333.792C170.811 333.76 171.171 333.856 171.491 334.08C171.811 334.304 171.979 334.664 171.995 335.16C172.091 336.408 172.179 338.16 172.259 340.416C173.139 340.416 174.483 340.424 176.291 340.44C178.099 340.456 179.459 340.464 180.371 340.464C180.435 338.592 180.523 336.784 180.635 335.04C180.651 334.544 180.819 334.184 181.139 333.96C181.459 333.736 181.811 333.64 182.195 333.672C182.595 333.688 182.939 333.832 183.227 334.104C183.515 334.36 183.643 334.736 183.611 335.232C183.339 339.664 183.203 344.44 183.203 349.56C183.203 350.056 183.051 350.424 182.747 350.664C182.459 350.904 182.115 351.024 181.715 351.024C181.315 351.024 180.963 350.904 180.659 350.664C180.371 350.424 180.227 350.056 180.227 349.56C180.227 347.544 180.243 345.512 180.275 343.464C179.395 343.464 178.075 343.456 176.315 343.44C174.539 343.424 173.211 343.416 172.331 343.416C172.411 346.008 172.483 348.024 172.547 349.464C172.579 349.96 172.451 350.344 172.163 350.616C171.875 350.872 171.531 351.008 171.131 351.024C170.747 351.04 170.395 350.936 170.075 350.712C169.755 350.472 169.587 350.104 169.571 349.608Z" fill="black"/>
<rect x="33" y="238" width="172" height="47" rx="20" fill="#CCFF53"/>
<path d="M83.472 267.704C83.216 265.768 83.064 263.416 83.016 260.648C82.952 256.6 82.904 254.32 82.872 253.808C82.824 253.664 82.8 253.512 82.8 253.352C82.8 252.936 82.952 252.576 83.256 252.272C83.56 251.968 83.92 251.816 84.336 251.816C88.208 251.816 91.032 251.792 92.808 251.744C93.32 251.744 93.704 251.896 93.96 252.2C94.216 252.504 94.344 252.856 94.344 253.256C94.36 253.656 94.248 254.016 94.008 254.336C93.768 254.64 93.4 254.8 92.904 254.816C91.16 254.864 88.848 254.888 85.968 254.888C85.984 255.448 86 256.048 86.016 256.688C86.032 257.12 86.04 257.584 86.04 258.08C86.056 258.576 86.064 259.048 86.064 259.496C86.064 259.944 86.064 260.312 86.064 260.6C86.128 263.256 86.272 265.496 86.496 267.32C86.576 267.816 86.48 268.208 86.208 268.496C85.936 268.784 85.592 268.952 85.176 269C84.776 269.064 84.408 268.992 84.072 268.784C83.736 268.56 83.536 268.2 83.472 267.704ZM103.785 268.952C102.537 269.128 101.377 269.08 100.305 268.808C99.2328 268.52 98.3208 268.056 97.5688 267.416C96.0168 266.12 95.0488 264.48 94.6648 262.496C94.5208 261.728 94.4488 260.992 94.4488 260.288C94.4488 259.6 94.5608 258.856 94.7848 258.056C94.9928 257.256 95.2888 256.504 95.6728 255.8C96.0408 255.096 96.5288 254.44 97.1368 253.832C97.7448 253.208 98.4408 252.68 99.2248 252.248C99.3688 252.008 99.5768 251.824 99.8488 251.696C100.121 251.568 100.409 251.52 100.713 251.552L101.097 251.6C101.177 251.584 101.321 251.552 101.529 251.504C101.737 251.456 101.865 251.424 101.913 251.408C102.521 251.232 103.041 251.384 103.473 251.864C103.825 251.896 104.121 251.952 104.361 252.032C104.889 252.176 105.361 252.424 105.777 252.776C106.161 253.096 106.705 253.632 107.409 254.384C108.273 255.312 108.889 256.12 109.257 256.808C109.737 257.704 110.057 258.64 110.217 259.616C110.393 260.592 110.377 261.592 110.169 262.616C109.961 263.656 109.609 264.616 109.113 265.496C108.601 266.392 107.881 267.152 106.953 267.776C106.041 268.384 104.985 268.776 103.785 268.952ZM103.353 265.976C104.201 265.864 104.945 265.536 105.585 264.992C106.849 263.92 107.433 262.448 107.337 260.576C107.305 259.84 107.065 259.064 106.617 258.248C106.345 257.736 105.873 257.12 105.201 256.4C104.337 255.472 103.777 254.976 103.521 254.912C103.393 254.864 103.073 254.816 102.561 254.768L101.265 254.648C101.041 254.712 100.841 254.792 100.665 254.888C99.8168 255.336 99.1288 255.952 98.6008 256.736C98.0888 257.504 97.7368 258.344 97.5448 259.256C97.3688 260.152 97.3848 261.024 97.5928 261.872C97.8808 263.264 98.5208 264.352 99.5128 265.136C100.505 265.92 101.785 266.2 103.353 265.976ZM118.726 267.56C118.726 268.056 118.574 268.424 118.27 268.664C117.966 268.904 117.614 269.016 117.214 269C116.814 269 116.462 268.88 116.158 268.64C115.87 268.384 115.734 268.008 115.75 267.512C115.878 261.224 115.942 257.032 115.942 254.936L111.742 254.84C111.246 254.84 110.878 254.688 110.638 254.384C110.398 254.08 110.278 253.728 110.278 253.328C110.294 252.928 110.422 252.584 110.662 252.296C110.918 251.992 111.294 251.848 111.79 251.864C112.254 251.864 112.854 251.872 113.59 251.888C114.326 251.904 115.118 251.92 115.966 251.936C116.83 251.952 117.694 251.968 118.558 251.984C119.438 252 120.262 252.016 121.03 252.032C121.798 252.048 122.438 252.064 122.95 252.08C123.446 252.08 123.814 252.232 124.054 252.536C124.294 252.84 124.406 253.192 124.39 253.592C124.39 253.992 124.262 254.344 124.006 254.648C123.766 254.936 123.398 255.072 122.902 255.056C121.798 255.04 120.47 255.016 118.918 254.984C118.918 257.096 118.854 261.288 118.726 267.56ZM133.785 268.952C132.537 269.128 131.377 269.08 130.305 268.808C129.233 268.52 128.321 268.056 127.569 267.416C126.017 266.12 125.049 264.48 124.665 262.496C124.521 261.728 124.449 260.992 124.449 260.288C124.449 259.6 124.561 258.856 124.785 258.056C124.993 257.256 125.289 256.504 125.673 255.8C126.041 255.096 126.529 254.44 127.137 253.832C127.745 253.208 128.441 252.68 129.225 252.248C129.369 252.008 129.577 251.824 129.849 251.696C130.121 251.568 130.409 251.52 130.713 251.552L131.097 251.6C131.177 251.584 131.321 251.552 131.529 251.504C131.737 251.456 131.865 251.424 131.913 251.408C132.521 251.232 133.041 251.384 133.473 251.864C133.825 251.896 134.121 251.952 134.361 252.032C134.889 252.176 135.361 252.424 135.777 252.776C136.161 253.096 136.705 253.632 137.409 254.384C138.273 255.312 138.889 256.12 139.257 256.808C139.737 257.704 140.057 258.64 140.217 259.616C140.393 260.592 140.377 261.592 140.169 262.616C139.961 263.656 139.609 264.616 139.113 265.496C138.601 266.392 137.881 267.152 136.953 267.776C136.041 268.384 134.985 268.776 133.785 268.952ZM133.353 265.976C134.201 265.864 134.945 265.536 135.585 264.992C136.849 263.92 137.433 262.448 137.337 260.576C137.305 259.84 137.065 259.064 136.617 258.248C136.345 257.736 135.873 257.12 135.201 256.4C134.337 255.472 133.777 254.976 133.521 254.912C133.393 254.864 133.073 254.816 132.561 254.768L131.265 254.648C131.041 254.712 130.841 254.792 130.665 254.888C129.817 255.336 129.129 255.952 128.601 256.736C128.089 257.504 127.737 258.344 127.545 259.256C127.369 260.152 127.385 261.024 127.593 261.872C127.881 263.264 128.521 264.352 129.513 265.136C130.505 265.92 131.785 266.2 133.353 265.976ZM144.838 268.904C144.662 268.904 144.494 268.864 144.334 268.784C143.982 268.752 143.678 268.608 143.422 268.352C143.166 268.08 143.038 267.768 143.038 267.416C142.878 262.936 142.846 258.32 142.942 253.568C142.942 253.216 143.046 252.912 143.254 252.656C143.478 252.384 143.75 252.216 144.07 252.152C144.118 252.136 144.166 252.128 144.214 252.128L144.934 252.008C145.398 251.912 145.686 251.856 145.798 251.84C145.894 251.84 146.182 251.8 146.662 251.72C146.918 251.688 147.246 251.664 147.646 251.648C148.062 251.616 148.454 251.6 148.822 251.6C149.19 251.6 149.462 251.616 149.638 251.648L150.598 251.84C150.95 251.92 151.286 252.024 151.606 252.152C151.926 252.296 152.23 252.464 152.518 252.656C153.446 253.232 154.118 253.928 154.534 254.744C154.934 255.56 155.03 256.376 154.822 257.192C154.614 258.008 154.142 258.784 153.406 259.52C153.55 259.632 153.702 259.752 153.862 259.88C154.566 260.536 155.054 261.272 155.326 262.088C155.598 262.936 155.63 263.776 155.422 264.608C155.246 265.392 154.886 266.112 154.342 266.768C153.798 267.408 153.142 267.92 152.374 268.304C151.91 268.512 151.414 268.68 150.886 268.808C150.358 268.936 149.782 269.008 149.158 269.024C148.742 269.056 148.254 269.064 147.694 269.048C147.134 269.032 146.59 269.016 146.062 269C145.55 268.968 145.142 268.936 144.838 268.904ZM145.894 266.072C146.518 266.136 147.158 266.176 147.814 266.192C148.47 266.192 149.086 266.16 149.662 266.096C150.238 266.016 150.718 265.888 151.102 265.712C151.934 265.296 152.438 264.712 152.614 263.96C152.774 263.256 152.534 262.624 151.894 262.064C151.718 261.888 151.55 261.752 151.39 261.656C151.246 261.56 151.054 261.496 150.814 261.464C150.622 261.432 150.366 261.424 150.046 261.44C149.742 261.44 149.43 261.448 149.11 261.464C148.79 261.464 148.526 261.464 148.318 261.464C148.174 261.48 148.03 261.464 147.886 261.416C147.774 261.432 147.414 261.432 146.806 261.416C146.198 261.4 145.862 261.392 145.798 261.392C145.814 262.992 145.846 264.552 145.894 266.072ZM145.774 258.512C145.95 258.512 146.302 258.512 146.83 258.512C147.358 258.528 147.71 258.528 147.886 258.512C148.254 258.496 148.67 258.456 149.134 258.392C149.598 258.328 149.998 258.224 150.334 258.08C150.814 257.856 151.198 257.6 151.486 257.312C151.774 257.024 151.942 256.744 151.99 256.472C152.118 256.056 151.782 255.6 150.982 255.104C150.374 254.736 149.598 254.544 148.654 254.528C147.726 254.512 146.782 254.6 145.822 254.792C145.79 255.976 145.774 257.216 145.774 258.512Z" fill="black"/>
<rect x="33" y="156" width="215" height="47" rx="20" fill="#FF7700" fill-opacity="0.5"/>
<path d="M64.472 185.704C64.216 183.768 64.064 181.416 64.016 178.648C63.952 174.6 63.904 172.32 63.872 171.808C63.824 171.664 63.8 171.512 63.8 171.352C63.8 170.936 63.952 170.576 64.256 170.272C64.56 169.968 64.92 169.816 65.336 169.816C69.208 169.816 72.032 169.792 73.808 169.744C74.32 169.744 74.704 169.896 74.96 170.2C75.216 170.504 75.344 170.856 75.344 171.256C75.36 171.656 75.248 172.016 75.008 172.336C74.768 172.64 74.4 172.8 73.904 172.816C72.16 172.864 69.848 172.888 66.968 172.888C66.984 173.448 67 174.048 67.016 174.688C67.032 175.12 67.04 175.584 67.04 176.08C67.056 176.576 67.064 177.048 67.064 177.496C67.064 177.944 67.064 178.312 67.064 178.6C67.128 181.256 67.272 183.496 67.496 185.32C67.576 185.816 67.48 186.208 67.208 186.496C66.936 186.784 66.592 186.952 66.176 187C65.776 187.064 65.408 186.992 65.072 186.784C64.736 186.56 64.536 186.2 64.472 185.704ZM84.7848 186.952C83.5368 187.128 82.3768 187.08 81.3048 186.808C80.2328 186.52 79.3208 186.056 78.5688 185.416C77.0168 184.12 76.0488 182.48 75.6648 180.496C75.5208 179.728 75.4488 178.992 75.4488 178.288C75.4488 177.6 75.5608 176.856 75.7848 176.056C75.9928 175.256 76.2888 174.504 76.6728 173.8C77.0408 173.096 77.5288 172.44 78.1368 171.832C78.7448 171.208 79.4408 170.68 80.2248 170.248C80.3688 170.008 80.5768 169.824 80.8488 169.696C81.1208 169.568 81.4088 169.52 81.7128 169.552L82.0968 169.6C82.1768 169.584 82.3208 169.552 82.5288 169.504C82.7368 169.456 82.8648 169.424 82.9128 169.408C83.5208 169.232 84.0408 169.384 84.4728 169.864C84.8248 169.896 85.1208 169.952 85.3608 170.032C85.8888 170.176 86.3608 170.424 86.7768 170.776C87.1608 171.096 87.7048 171.632 88.4088 172.384C89.2728 173.312 89.8888 174.12 90.2568 174.808C90.7368 175.704 91.0568 176.64 91.2168 177.616C91.3928 178.592 91.3768 179.592 91.1688 180.616C90.9608 181.656 90.6088 182.616 90.1128 183.496C89.6008 184.392 88.8808 185.152 87.9528 185.776C87.0408 186.384 85.9848 186.776 84.7848 186.952ZM84.3528 183.976C85.2008 183.864 85.9448 183.536 86.5848 182.992C87.8488 181.92 88.4328 180.448 88.3368 178.576C88.3048 177.84 88.0648 177.064 87.6168 176.248C87.3448 175.736 86.8728 175.12 86.2008 174.4C85.3368 173.472 84.7768 172.976 84.5208 172.912C84.3928 172.864 84.0728 172.816 83.5608 172.768L82.2648 172.648C82.0408 172.712 81.8408 172.792 81.6648 172.888C80.8168 173.336 80.1288 173.952 79.6008 174.736C79.0888 175.504 78.7368 176.344 78.5448 177.256C78.3688 178.152 78.3848 179.024 78.5928 179.872C78.8808 181.264 79.5208 182.352 80.5128 183.136C81.5048 183.92 82.7848 184.2 84.3528 183.976ZM99.7259 185.56C99.7259 186.056 99.5739 186.424 99.2699 186.664C98.9659 186.904 98.6139 187.016 98.2139 187C97.8139 187 97.4619 186.88 97.1579 186.64C96.8699 186.384 96.7339 186.008 96.7499 185.512C96.8779 179.224 96.9419 175.032 96.9419 172.936L92.7419 172.84C92.2459 172.84 91.8779 172.688 91.6379 172.384C91.3979 172.08 91.2779 171.728 91.2779 171.328C91.2939 170.928 91.4219 170.584 91.6619 170.296C91.9179 169.992 92.2939 169.848 92.7899 169.864C93.2539 169.864 93.8539 169.872 94.5899 169.888C95.3259 169.904 96.1179 169.92 96.9659 169.936C97.8299 169.952 98.6939 169.968 99.5579 169.984C100.438 170 101.262 170.016 102.03 170.032C102.798 170.048 103.438 170.064 103.95 170.08C104.446 170.08 104.814 170.232 105.054 170.536C105.294 170.84 105.406 171.192 105.39 171.592C105.39 171.992 105.262 172.344 105.006 172.648C104.766 172.936 104.398 173.072 103.902 173.056C102.798 173.04 101.47 173.016 99.9179 172.984C99.9179 175.096 99.8539 179.288 99.7259 185.56ZM114.785 186.952C113.537 187.128 112.377 187.08 111.305 186.808C110.233 186.52 109.321 186.056 108.569 185.416C107.017 184.12 106.049 182.48 105.665 180.496C105.521 179.728 105.449 178.992 105.449 178.288C105.449 177.6 105.561 176.856 105.785 176.056C105.993 175.256 106.289 174.504 106.673 173.8C107.041 173.096 107.529 172.44 108.137 171.832C108.745 171.208 109.441 170.68 110.225 170.248C110.369 170.008 110.577 169.824 110.849 169.696C111.121 169.568 111.409 169.52 111.713 169.552L112.097 169.6C112.177 169.584 112.321 169.552 112.529 169.504C112.737 169.456 112.865 169.424 112.913 169.408C113.521 169.232 114.041 169.384 114.473 169.864C114.825 169.896 115.121 169.952 115.361 170.032C115.889 170.176 116.361 170.424 116.777 170.776C117.161 171.096 117.705 171.632 118.409 172.384C119.273 173.312 119.889 174.12 120.257 174.808C120.737 175.704 121.057 176.64 121.217 177.616C121.393 178.592 121.377 179.592 121.169 180.616C120.961 181.656 120.609 182.616 120.113 183.496C119.601 184.392 118.881 185.152 117.953 185.776C117.041 186.384 115.985 186.776 114.785 186.952ZM114.353 183.976C115.201 183.864 115.945 183.536 116.585 182.992C117.849 181.92 118.433 180.448 118.337 178.576C118.305 177.84 118.065 177.064 117.617 176.248C117.345 175.736 116.873 175.12 116.201 174.4C115.337 173.472 114.777 172.976 114.521 172.912C114.393 172.864 114.073 172.816 113.561 172.768L112.265 172.648C112.041 172.712 111.841 172.792 111.665 172.888C110.817 173.336 110.129 173.952 109.601 174.736C109.089 175.504 108.737 176.344 108.545 177.256C108.369 178.152 108.385 179.024 108.593 179.872C108.881 181.264 109.521 182.352 110.513 183.136C111.505 183.92 112.785 184.2 114.353 183.976ZM125.838 186.904C125.662 186.904 125.494 186.864 125.334 186.784C124.982 186.752 124.678 186.608 124.422 186.352C124.166 186.08 124.038 185.768 124.038 185.416C123.878 180.936 123.846 176.32 123.942 171.568C123.942 171.216 124.046 170.912 124.254 170.656C124.478 170.384 124.75 170.216 125.07 170.152C125.118 170.136 125.166 170.128 125.214 170.128L125.934 170.008C126.398 169.912 126.686 169.856 126.798 169.84C126.894 169.84 127.182 169.8 127.662 169.72C127.918 169.688 128.246 169.664 128.646 169.648C129.062 169.616 129.454 169.6 129.822 169.6C130.19 169.6 130.462 169.616 130.638 169.648L131.598 169.84C131.95 169.92 132.286 170.024 132.606 170.152C132.926 170.296 133.23 170.464 133.518 170.656C134.446 171.232 135.118 171.928 135.534 172.744C135.934 173.56 136.03 174.376 135.822 175.192C135.614 176.008 135.142 176.784 134.406 177.52C134.55 177.632 134.702 177.752 134.862 177.88C135.566 178.536 136.054 179.272 136.326 180.088C136.598 180.936 136.63 181.776 136.422 182.608C136.246 183.392 135.886 184.112 135.342 184.768C134.798 185.408 134.142 185.92 133.374 186.304C132.91 186.512 132.414 186.68 131.886 186.808C131.358 186.936 130.782 187.008 130.158 187.024C129.742 187.056 129.254 187.064 128.694 187.048C128.134 187.032 127.59 187.016 127.062 187C126.55 186.968 126.142 186.936 125.838 186.904ZM126.894 184.072C127.518 184.136 128.158 184.176 128.814 184.192C129.47 184.192 130.086 184.16 130.662 184.096C131.238 184.016 131.718 183.888 132.102 183.712C132.934 183.296 133.438 182.712 133.614 181.96C133.774 181.256 133.534 180.624 132.894 180.064C132.718 179.888 132.55 179.752 132.39 179.656C132.246 179.56 132.054 179.496 131.814 179.464C131.622 179.432 131.366 179.424 131.046 179.44C130.742 179.44 130.43 179.448 130.11 179.464C129.79 179.464 129.526 179.464 129.318 179.464C129.174 179.48 129.03 179.464 128.886 179.416C128.774 179.432 128.414 179.432 127.806 179.416C127.198 179.4 126.862 179.392 126.798 179.392C126.814 180.992 126.846 182.552 126.894 184.072ZM126.774 176.512C126.95 176.512 127.302 176.512 127.83 176.512C128.358 176.528 128.71 176.528 128.886 176.512C129.254 176.496 129.67 176.456 130.134 176.392C130.598 176.328 130.998 176.224 131.334 176.08C131.814 175.856 132.198 175.6 132.486 175.312C132.774 175.024 132.942 174.744 132.99 174.472C133.118 174.056 132.782 173.6 131.982 173.104C131.374 172.736 130.598 172.544 129.654 172.528C128.726 172.512 127.782 172.6 126.822 172.792C126.79 173.976 126.774 175.216 126.774 176.512ZM141.574 186.808C141.27 187.032 140.926 187.112 140.542 187.048C140.174 187 139.878 186.824 139.654 186.52C139.414 186.2 139.334 185.84 139.414 185.44V185.392C139.542 183.872 139.622 182.312 139.654 180.712C139.702 179.112 139.686 177.52 139.606 175.936C139.526 174.336 139.382 172.808 139.174 171.352C139.094 170.904 139.174 170.544 139.414 170.272C139.654 170 139.95 169.84 140.302 169.792C140.67 169.744 141.006 169.816 141.31 170.008C141.614 170.184 141.798 170.488 141.862 170.92C142.374 174.248 142.526 178.136 142.318 182.584C142.99 181.928 143.638 181.216 144.262 180.448C144.886 179.696 146.046 178.12 147.742 175.72L151.078 170.368C151.27 170.048 151.55 169.848 151.918 169.768C152.286 169.672 152.63 169.728 152.95 169.936C153.222 170.096 153.406 170.32 153.502 170.608C153.614 170.88 153.63 171.16 153.55 171.448V171.496C153.534 172.184 153.502 172.984 153.454 173.896C153.406 174.792 153.35 175.68 153.286 176.56C153.238 177.44 153.19 178.192 153.142 178.816C153.094 179.44 153.07 180.152 153.07 180.952C153.07 181.752 153.102 182.552 153.166 183.352C153.23 184.136 153.334 184.84 153.478 185.464C153.574 185.912 153.51 186.272 153.286 186.544C153.062 186.816 152.774 186.984 152.422 187.048C152.07 187.112 151.734 187.064 151.414 186.904C151.094 186.728 150.886 186.424 150.79 185.992C150.598 185.112 150.47 184.12 150.406 183.016C150.342 181.912 150.318 180.784 150.334 179.632C150.366 178.48 150.43 177.416 150.526 176.44C150.03 177.256 149.454 178.128 148.798 179.056C148.142 179.984 147.43 180.92 146.662 181.864C145.894 182.792 145.078 183.68 144.214 184.528C143.366 185.376 142.486 186.136 141.574 186.808ZM164.038 185.56C164.038 186.056 163.886 186.424 163.582 186.664C163.278 186.904 162.926 187.016 162.526 187C162.126 187 161.774 186.88 161.47 186.64C161.182 186.384 161.046 186.008 161.062 185.512C161.19 179.224 161.254 175.032 161.254 172.936L157.054 172.84C156.558 172.84 156.19 172.688 155.95 172.384C155.71 172.08 155.59 171.728 155.59 171.328C155.606 170.928 155.734 170.584 155.974 170.296C156.23 169.992 156.606 169.848 157.102 169.864C157.566 169.864 158.166 169.872 158.902 169.888C159.638 169.904 160.43 169.92 161.278 169.936C162.142 169.952 163.006 169.968 163.87 169.984C164.75 170 165.574 170.016 166.342 170.032C167.11 170.048 167.75 170.064 168.262 170.08C168.758 170.08 169.126 170.232 169.366 170.536C169.606 170.84 169.718 171.192 169.702 171.592C169.702 171.992 169.574 172.344 169.318 172.648C169.078 172.936 168.71 173.072 168.214 173.056C167.11 173.04 165.782 173.016 164.23 172.984C164.23 175.096 164.166 179.288 164.038 185.56ZM173.632 186.952C173.216 186.968 172.856 186.84 172.552 186.568C172.248 186.296 172.088 185.952 172.072 185.536C172.024 184.56 171.968 183 171.904 180.856C171.84 178.712 171.76 176.84 171.664 175.24C171.584 173.624 171.464 172.384 171.304 171.52C171.24 171.024 171.344 170.64 171.616 170.368C171.888 170.08 172.216 169.92 172.6 169.888C173 169.84 173.36 169.92 173.68 170.128C174.016 170.336 174.216 170.688 174.28 171.184C174.472 172.288 174.624 173.984 174.736 176.272C175.52 176.16 176.344 176.072 177.208 176.008C178.088 175.944 178.968 175.984 179.848 176.128C180.744 176.256 181.608 176.568 182.44 177.064C183.576 177.768 184.352 178.704 184.768 179.872C185.04 180.672 185.12 181.464 185.008 182.248C184.896 183.032 184.6 183.768 184.12 184.456C183.656 185.128 183.032 185.68 182.248 186.112C181.64 186.464 180.984 186.712 180.28 186.856C179.576 187 178.856 187.072 178.12 187.072C177.4 187.088 176.704 187.064 176.032 187C175.36 186.936 174.76 186.872 174.232 186.808C174.04 186.904 173.84 186.952 173.632 186.952ZM175 183.88C175.688 183.992 176.392 184.064 177.112 184.096C177.848 184.128 178.536 184.104 179.176 184.024C179.832 183.928 180.376 183.76 180.808 183.52C181.336 183.216 181.696 182.824 181.888 182.344C182.08 181.848 182.088 181.352 181.912 180.856C181.736 180.36 181.384 179.944 180.856 179.608C180.344 179.288 179.752 179.096 179.08 179.032C178.424 178.968 177.728 178.976 176.992 179.056C176.272 179.12 175.56 179.2 174.856 179.296C174.856 179.392 174.856 179.624 174.856 179.992C174.872 180.36 174.888 180.792 174.904 181.288C174.92 181.768 174.936 182.248 174.952 182.728C174.968 183.208 174.984 183.592 175 183.88ZM192.838 186.928C191.75 186.672 190.726 186.248 189.766 185.656C188.822 185.048 188.078 184.328 187.534 183.496C186.91 182.536 186.51 181.48 186.334 180.328C186.158 179.176 186.19 178.056 186.43 176.968C186.67 175.864 187.078 174.848 187.654 173.92C188.246 172.912 188.998 172.064 189.91 171.376C190.806 170.704 191.854 170.224 193.054 169.936C194.254 169.648 195.542 169.704 196.918 170.104C197.43 170.248 197.878 170.408 198.262 170.584C198.662 170.76 199.022 170.984 199.342 171.256C199.662 171.56 199.894 171.792 200.038 171.952C200.198 172.112 200.318 172.256 200.398 172.384C200.478 172.496 200.574 172.64 200.686 172.816C200.814 172.992 201.014 173.232 201.286 173.536C201.59 173.872 201.694 174.216 201.598 174.568C201.518 174.92 201.318 175.216 200.998 175.456C200.694 175.68 200.35 175.792 199.966 175.792C199.582 175.792 199.254 175.6 198.982 175.216L198.286 174.4C198.046 174.08 197.838 173.824 197.662 173.632C197.486 173.424 197.278 173.256 197.038 173.128C196.798 172.984 196.478 172.856 196.078 172.744C195.086 172.488 194.158 172.504 193.294 172.792C192.43 173.08 191.678 173.56 191.038 174.232C190.398 174.888 189.902 175.664 189.55 176.56C189.214 177.44 189.078 178.36 189.142 179.32C189.206 180.264 189.51 181.168 190.054 182.032C190.374 182.528 190.846 182.976 191.47 183.376C192.094 183.776 192.766 184.056 193.486 184.216C195.022 184.552 196.206 184.296 197.038 183.448C197.278 183.192 197.55 182.8 197.854 182.272C198.414 181.152 198.694 180.584 198.694 180.568C198.95 180.168 199.262 179.936 199.63 179.872C200.014 179.808 200.374 179.872 200.71 180.064C201.046 180.24 201.278 180.496 201.406 180.832C201.55 181.168 201.51 181.528 201.286 181.912C201.19 182.072 201.102 182.232 201.022 182.392L200.734 182.968L200.494 183.472C200.094 184.24 199.678 184.848 199.246 185.296C198.67 185.872 198.006 186.312 197.254 186.616C196.502 186.936 195.758 187.096 195.022 187.096C194.302 187.112 193.574 187.056 192.838 186.928ZM205.902 186.088C205.774 186.52 205.542 186.808 205.206 186.952C204.886 187.08 204.55 187.096 204.198 187C203.862 186.904 203.59 186.712 203.382 186.424C203.19 186.12 203.15 185.752 203.262 185.32C204.094 182.68 205.022 180.76 206.046 179.56C205.422 179.24 204.918 178.848 204.534 178.384C204.182 177.968 203.926 177.488 203.766 176.944C203.622 176.4 203.558 175.856 203.574 175.312C203.606 174.752 203.71 174.248 203.886 173.8C204.782 171.512 206.734 170.176 209.742 169.792C210.382 169.712 211.07 169.672 211.806 169.672C212.59 169.672 213.374 169.696 214.158 169.744C214.942 169.792 215.534 169.816 215.934 169.816C216.03 169.8 216.134 169.792 216.246 169.792C216.614 169.808 216.926 169.96 217.182 170.248C217.438 170.52 217.558 170.848 217.542 171.232C217.462 173.152 217.422 175.488 217.422 178.24C217.614 178.528 217.678 178.848 217.614 179.2C217.598 179.392 217.534 179.568 217.422 179.728C217.422 182.464 217.398 184.496 217.35 185.824C217.334 186.272 217.182 186.608 216.894 186.832C216.606 187.04 216.278 187.136 215.91 187.12C215.558 187.12 215.246 187 214.974 186.76C214.718 186.52 214.598 186.176 214.614 185.728C214.662 184.496 214.686 182.792 214.686 180.616C214.622 180.616 214.406 180.616 214.038 180.616C213.67 180.632 213.374 180.64 213.15 180.64C211.982 180.64 210.99 180.608 210.174 180.544C209.838 180.512 209.518 180.48 209.214 180.448L209.118 180.496C208.494 180.864 207.926 181.488 207.414 182.368C206.918 183.248 206.414 184.488 205.902 186.088ZM208.902 177.616C210.278 177.152 212.206 177.072 214.686 177.376C214.686 175.44 214.71 173.816 214.758 172.504C212.502 172.408 210.942 172.416 210.078 172.528C209.102 172.64 208.318 172.88 207.726 173.248C207.134 173.6 206.702 174.12 206.43 174.808C206.318 175.112 206.278 175.448 206.31 175.816C206.358 176.168 206.454 176.432 206.598 176.608C206.998 177.056 207.766 177.392 208.902 177.616Z" fill="black"/>
<path d="M76.44 104.928C75.352 104.672 74.328 104.248 73.368 103.656C72.424 103.048 71.68 102.328 71.136 101.496C70.512 100.536 70.112 99.48 69.936 98.328C69.76 97.176 69.792 96.056 70.032 94.968C70.272 93.864 70.68 92.848 71.256 91.92C71.848 90.912 72.6 90.064 73.512 89.376C74.408 88.704 75.456 88.224 76.656 87.936C77.856 87.648 79.144 87.704 80.52 88.104C81.032 88.248 81.48 88.408 81.864 88.584C82.264 88.76 82.624 88.984 82.944 89.256C83.264 89.56 83.496 89.792 83.64 89.952C83.8 90.112 83.92 90.256 84 90.384C84.08 90.496 84.176 90.64 84.288 90.816C84.416 90.992 84.616 91.232 84.888 91.536C85.192 91.872 85.296 92.216 85.2 92.568C85.12 92.92 84.92 93.216 84.6 93.456C84.296 93.68 83.952 93.792 83.568 93.792C83.184 93.792 82.856 93.6 82.584 93.216L81.888 92.4C81.648 92.08 81.44 91.824 81.264 91.632C81.088 91.424 80.88 91.256 80.64 91.128C80.4 90.984 80.08 90.856 79.68 90.744C78.688 90.488 77.76 90.504 76.896 90.792C76.032 91.08 75.28 91.56 74.64 92.232C74 92.888 73.504 93.664 73.152 94.56C72.816 95.44 72.68 96.36 72.744 97.32C72.808 98.264 73.112 99.168 73.656 100.032C73.976 100.528 74.448 100.976 75.072 101.376C75.696 101.776 76.368 102.056 77.088 102.216C78.624 102.552 79.808 102.296 80.64 101.448C80.88 101.192 81.152 100.8 81.456 100.272C82.016 99.152 82.296 98.584 82.296 98.568C82.552 98.168 82.864 97.936 83.232 97.872C83.616 97.808 83.976 97.872 84.312 98.064C84.648 98.24 84.88 98.496 85.008 98.832C85.152 99.168 85.112 99.528 84.888 99.912C84.792 100.072 84.704 100.232 84.624 100.392L84.336 100.968L84.096 101.472C83.696 102.24 83.28 102.848 82.848 103.296C82.272 103.872 81.608 104.312 80.856 104.616C80.104 104.936 79.36 105.096 78.624 105.096C77.904 105.112 77.176 105.056 76.44 104.928ZM95.8395 104.952C94.5915 105.128 93.4315 105.08 92.3595 104.808C91.2875 104.52 90.3755 104.056 89.6235 103.416C88.0715 102.12 87.1035 100.48 86.7195 98.496C86.5755 97.728 86.5035 96.992 86.5035 96.288C86.5035 95.6 86.6155 94.856 86.8395 94.056C87.0475 93.256 87.3435 92.504 87.7275 91.8C88.0955 91.096 88.5835 90.44 89.1915 89.832C89.7995 89.208 90.4955 88.68 91.2795 88.248C91.4235 88.008 91.6315 87.824 91.9035 87.696C92.1755 87.568 92.4635 87.52 92.7675 87.552L93.1515 87.6C93.2315 87.584 93.3755 87.552 93.5835 87.504C93.7915 87.456 93.9195 87.424 93.9675 87.408C94.5755 87.232 95.0955 87.384 95.5275 87.864C95.8795 87.896 96.1755 87.952 96.4155 88.032C96.9435 88.176 97.4155 88.424 97.8315 88.776C98.2155 89.096 98.7595 89.632 99.4635 90.384C100.328 91.312 100.944 92.12 101.312 92.808C101.792 93.704 102.112 94.64 102.272 95.616C102.448 96.592 102.432 97.592 102.224 98.616C102.016 99.656 101.664 100.616 101.168 101.496C100.656 102.392 99.9355 103.152 99.0075 103.776C98.0955 104.384 97.0395 104.776 95.8395 104.952ZM95.4075 101.976C96.2555 101.864 96.9995 101.536 97.6395 100.992C98.9035 99.92 99.4875 98.448 99.3915 96.576C99.3595 95.84 99.1195 95.064 98.6715 94.248C98.3995 93.736 97.9275 93.12 97.2555 92.4C96.3915 91.472 95.8315 90.976 95.5755 90.912C95.4475 90.864 95.1275 90.816 94.6155 90.768L93.3195 90.648C93.0955 90.712 92.8955 90.792 92.7195 90.888C91.8715 91.336 91.1835 91.952 90.6555 92.736C90.1435 93.504 89.7915 94.344 89.5995 95.256C89.4235 96.152 89.4395 97.024 89.6475 97.872C89.9355 99.264 90.5755 100.352 91.5675 101.136C92.5595 101.92 93.8395 102.2 95.4075 101.976ZM111.932 104.808C111.212 104.968 110.492 105.048 109.772 105.048C109.052 105.064 108.324 104.968 107.588 104.76C106.868 104.536 106.252 104.208 105.74 103.776C105.404 103.44 105.1 102.976 104.828 102.384L104.564 101.832C104.484 101.656 104.412 101.52 104.348 101.424C104.108 101.056 104.044 100.712 104.156 100.392C104.284 100.056 104.5 99.8 104.804 99.624C105.108 99.448 105.436 99.384 105.788 99.432C106.14 99.48 106.436 99.688 106.676 100.056L107.012 100.68L107.252 101.208C107.38 101.48 107.5 101.664 107.612 101.76C107.884 102.016 108.348 102.192 109.004 102.288C109.66 102.384 110.452 102.344 111.38 102.168C112.212 101.976 112.9 101.704 113.444 101.352C113.988 100.984 114.324 100.616 114.452 100.248C114.548 99.928 114.452 99.488 114.164 98.928C113.86 98.32 113.508 97.896 113.108 97.656C112.932 97.56 112.508 97.448 111.836 97.32H111.812C111.796 97.336 111.692 97.36 111.5 97.392C111.308 97.408 111.092 97.424 110.852 97.44C110.628 97.44 110.428 97.416 110.252 97.368C109.644 97.192 109.252 96.808 109.076 96.216C108.916 95.72 109.004 95.288 109.34 94.92C109.452 94.76 109.604 94.64 109.796 94.56C109.908 94.512 110.028 94.472 110.156 94.44C110.236 94.44 110.34 94.432 110.468 94.416C110.82 94.368 111.068 94.336 111.212 94.32C111.884 94.208 112.396 94.04 112.748 93.816C113.116 93.576 113.34 93.36 113.42 93.168C113.5 92.96 113.5 92.544 113.42 91.92C113.372 91.456 113.124 91.08 112.676 90.792C112.244 90.504 111.628 90.36 110.828 90.36C109.996 90.36 109.252 90.512 108.596 90.816C107.956 91.12 107.532 91.472 107.324 91.872V92.064C107.324 92.096 107.324 92.128 107.324 92.16C107.308 92.192 107.3 92.232 107.3 92.28V92.376C107.284 92.568 107.26 92.728 107.228 92.856C107.148 93.288 106.956 93.592 106.652 93.768C106.348 93.928 106.02 93.984 105.668 93.936C105.316 93.872 105.02 93.704 104.78 93.432C104.556 93.16 104.484 92.808 104.564 92.376C104.564 92.328 104.572 92.256 104.588 92.16C104.604 91.92 104.612 91.792 104.612 91.776C104.66 91.344 104.764 90.976 104.924 90.672C105.244 90 105.716 89.44 106.34 88.992C106.964 88.544 107.668 88.208 108.452 87.984C109.236 87.76 110.028 87.648 110.828 87.648C111.644 87.648 112.436 87.792 113.204 88.08C113.988 88.352 114.644 88.784 115.172 89.376C115.716 89.952 116.028 90.688 116.108 91.584C116.236 92.64 116.188 93.488 115.964 94.128C115.74 94.688 115.372 95.184 114.86 95.616C115.564 96.128 116.132 96.816 116.564 97.68C117.204 98.912 117.356 100.04 117.02 101.064C116.7 102.04 116.06 102.848 115.1 103.488C114.156 104.112 113.1 104.552 111.932 104.808ZM131.595 107.112C131.595 105.976 131.603 105.224 131.619 104.856C129.971 104.888 126.419 104.936 120.963 105C120.963 105.016 121.051 105.552 121.227 106.608C121.307 107.12 121.227 107.512 120.987 107.784C120.763 108.056 120.467 108.208 120.099 108.24C119.747 108.272 119.411 108.192 119.091 108C118.787 107.808 118.603 107.504 118.539 107.088L118.371 106.224C118.323 105.888 118.283 105.616 118.251 105.408C118.235 105.216 118.219 104.936 118.203 104.568L118.155 103.656C118.139 103.304 118.243 102.992 118.467 102.72C118.691 102.432 118.979 102.264 119.331 102.216C121.235 98.488 121.963 94.264 121.515 89.544V89.448C121.499 89.336 121.491 89.232 121.491 89.136C121.507 88.752 121.651 88.432 121.923 88.176C122.211 87.92 122.539 87.8 122.907 87.816H129.411C129.779 87.832 130.067 87.84 130.275 87.84C130.403 87.856 130.507 87.864 130.587 87.864C130.667 87.88 130.731 87.888 130.779 87.888C130.955 87.92 131.131 87.992 131.307 88.104C132.123 88.648 132.531 89.6 132.531 90.96C132.531 91.28 132.515 91.672 132.483 92.136C132.435 92.536 132.411 92.752 132.411 92.784C132.363 94.176 132.419 95.952 132.579 98.112C132.595 98.448 132.643 99.064 132.723 99.96C132.787 100.856 132.835 101.568 132.867 102.096H132.987C133.355 102.096 133.667 102.216 133.923 102.456C134.195 102.696 134.347 102.992 134.379 103.344C134.395 103.456 134.403 103.568 134.403 103.68C134.355 104.928 134.331 106.072 134.331 107.112C134.331 107.56 134.195 107.896 133.923 108.12C133.651 108.36 133.331 108.48 132.963 108.48C132.595 108.48 132.275 108.36 132.003 108.12C131.731 107.896 131.595 107.56 131.595 107.112ZM122.355 102.216C125.955 102.2 128.547 102.176 130.131 102.144C130.099 101.648 130.051 100.968 129.987 100.104C129.907 99.256 129.859 98.648 129.843 98.28C129.683 96.04 129.627 94.176 129.675 92.688C129.675 92.656 129.699 92.376 129.747 91.848C129.779 91.496 129.795 91.208 129.795 90.984C129.795 90.824 129.787 90.688 129.771 90.576H129.363C128.803 90.56 127.987 90.552 126.915 90.552H124.347C124.587 94.84 123.923 98.728 122.355 102.216ZM146.767 104.112L145.159 100.44H145.015C144.599 100.472 144.207 100.496 143.839 100.512L142.975 100.536C142.879 100.536 142.727 100.544 142.519 100.56C142.311 100.576 142.103 100.592 141.895 100.608C141.703 100.624 141.559 100.632 141.463 100.632H141.151C141.087 100.632 140.887 100.632 140.551 100.632C140.231 100.632 139.983 100.632 139.807 100.632H139.039C138.495 101.8 138.031 102.936 137.647 104.04C137.471 104.488 137.199 104.784 136.831 104.928C136.479 105.056 136.119 105.056 135.751 104.928C135.383 104.8 135.095 104.576 134.887 104.256C134.695 103.92 134.671 103.512 134.815 103.032C135.183 102.136 135.599 101.128 136.063 100.008L137.695 96.12L139.039 92.904C139.135 92.68 139.255 92.376 139.399 91.992C139.559 91.592 139.703 91.216 139.831 90.864C139.959 90.496 140.047 90.248 140.095 90.12C140.303 89.592 140.479 89.192 140.623 88.92C140.751 88.68 140.887 88.488 141.031 88.344C141.463 87.832 141.991 87.64 142.615 87.768C142.919 87.832 143.191 87.976 143.431 88.2C143.527 88.296 143.615 88.408 143.695 88.536C143.791 88.68 143.895 88.864 144.007 89.088C144.167 89.392 144.351 89.808 144.559 90.336L145.351 92.424C147.175 97.4 148.559 100.896 149.503 102.912C149.727 103.232 149.799 103.536 149.719 103.824C149.655 104.112 149.495 104.352 149.239 104.544C148.999 104.736 148.711 104.864 148.375 104.928C148.055 104.992 147.743 104.968 147.439 104.856C147.151 104.728 146.927 104.48 146.767 104.112ZM140.287 97.656C140.767 97.656 142.015 97.6 144.031 97.488L142.519 93.48L142.303 92.808L141.823 94.056L140.287 97.656ZM152.071 103.608C151.991 102.2 151.903 99.776 151.807 96.336C151.775 96.192 151.759 96.048 151.759 95.904C151.759 95.776 151.767 95.656 151.783 95.544C151.703 92.808 151.615 90.744 151.519 89.352C151.487 88.856 151.615 88.48 151.903 88.224C152.191 87.952 152.527 87.808 152.911 87.792C153.311 87.76 153.671 87.856 153.991 88.08C154.311 88.304 154.479 88.664 154.495 89.16C154.591 90.408 154.679 92.16 154.759 94.416C155.639 94.416 156.983 94.424 158.791 94.44C160.599 94.456 161.959 94.464 162.871 94.464C162.935 92.592 163.023 90.784 163.135 89.04C163.151 88.544 163.319 88.184 163.639 87.96C163.959 87.736 164.311 87.64 164.695 87.672C165.095 87.688 165.439 87.832 165.727 88.104C166.015 88.36 166.143 88.736 166.111 89.232C165.839 93.664 165.703 98.44 165.703 103.56C165.703 104.056 165.551 104.424 165.247 104.664C164.959 104.904 164.615 105.024 164.215 105.024C163.815 105.024 163.463 104.904 163.159 104.664C162.871 104.424 162.727 104.056 162.727 103.56C162.727 101.544 162.743 99.512 162.775 97.464C161.895 97.464 160.575 97.456 158.815 97.44C157.039 97.424 155.711 97.416 154.831 97.416C154.911 100.008 154.983 102.024 155.047 103.464C155.079 103.96 154.951 104.344 154.663 104.616C154.375 104.872 154.031 105.008 153.631 105.024C153.247 105.04 152.895 104.936 152.575 104.712C152.255 104.472 152.087 104.104 152.071 103.608Z" fill="black"/>
<path d="M58.44 31.928C57.352 31.672 56.328 31.248 55.368 30.656C54.424 30.048 53.68 29.328 53.136 28.496C52.512 27.536 52.112 26.48 51.936 25.328C51.76 24.176 51.792 23.056 52.032 21.968C52.272 20.864 52.68 19.848 53.256 18.92C53.848 17.912 54.6 17.064 55.512 16.376C56.408 15.704 57.456 15.224 58.656 14.936C59.856 14.648 61.144 14.704 62.52 15.104C63.032 15.248 63.48 15.408 63.864 15.584C64.264 15.76 64.624 15.984 64.944 16.256C65.264 16.56 65.496 16.792 65.64 16.952C65.8 17.112 65.92 17.256 66 17.384C66.08 17.496 66.176 17.64 66.288 17.816C66.416 17.992 66.616 18.232 66.888 18.536C67.192 18.872 67.296 19.216 67.2 19.568C67.12 19.92 66.92 20.216 66.6 20.456C66.296 20.68 65.952 20.792 65.568 20.792C65.184 20.792 64.856 20.6 64.584 20.216L63.888 19.4C63.648 19.08 63.44 18.824 63.264 18.632C63.088 18.424 62.88 18.256 62.64 18.128C62.4 17.984 62.08 17.856 61.68 17.744C60.688 17.488 59.76 17.504 58.896 17.792C58.032 18.08 57.28 18.56 56.64 19.232C56 19.888 55.504 20.664 55.152 21.56C54.816 22.44 54.68 23.36 54.744 24.32C54.808 25.264 55.112 26.168 55.656 27.032C55.976 27.528 56.448 27.976 57.072 28.376C57.696 28.776 58.368 29.056 59.088 29.216C60.624 29.552 61.808 29.296 62.64 28.448C62.88 28.192 63.152 27.8 63.456 27.272C64.016 26.152 64.296 25.584 64.296 25.568C64.552 25.168 64.864 24.936 65.232 24.872C65.616 24.808 65.976 24.872 66.312 25.064C66.648 25.24 66.88 25.496 67.008 25.832C67.152 26.168 67.112 26.528 66.888 26.912C66.792 27.072 66.704 27.232 66.624 27.392L66.336 27.968L66.096 28.472C65.696 29.24 65.28 29.848 64.848 30.296C64.272 30.872 63.608 31.312 62.856 31.616C62.104 31.936 61.36 32.096 60.624 32.096C59.904 32.112 59.176 32.056 58.44 31.928ZM74.7675 30.56C74.7675 31.04 74.6155 31.408 74.3115 31.664C74.0075 31.904 73.6555 32.024 73.2555 32.024C72.8555 32.024 72.5035 31.896 72.1995 31.64C71.9115 31.384 71.7755 31.008 71.7915 30.512C71.8235 27.488 71.8155 24.752 71.7675 22.304C70.4875 22.304 69.6395 22.296 69.2235 22.28C68.7435 22.28 68.3755 22.128 68.1195 21.824C67.8795 21.52 67.7595 21.168 67.7595 20.768C67.7595 20.368 67.8875 20.024 68.1435 19.736C68.3995 19.432 68.7755 19.288 69.2715 19.304C73.8795 19.336 76.6235 19.352 77.5035 19.352C77.9995 19.336 78.3755 19.48 78.6315 19.784C78.8875 20.072 79.0155 20.416 79.0155 20.816C79.0155 21.216 78.8875 21.568 78.6315 21.872C78.3915 22.176 78.0315 22.328 77.5515 22.328C77.2795 22.344 76.3515 22.352 74.7675 22.352C74.7995 24.816 74.7995 27.552 74.7675 30.56ZM85.7111 31.856C84.9431 32.096 84.2071 32.144 83.5031 32C82.8151 31.84 82.1831 31.552 81.6071 31.136C81.0471 30.704 80.5831 30.184 80.2151 29.576C79.8631 28.968 79.6471 28.328 79.5671 27.656C79.4071 26.472 79.4711 25.304 79.7591 24.152C80.0631 22.984 80.5751 21.984 81.2951 21.152C82.0951 20.192 83.0791 19.584 84.2471 19.328C85.4151 19.056 86.7351 19.2 88.2071 19.76C88.7031 19.952 89.2311 20.288 89.7911 20.768C89.8551 20.848 89.9511 20.944 90.0791 21.056L90.4631 21.392C90.5751 21.488 90.6871 21.576 90.7991 21.656C91.1191 21.896 91.3031 22.224 91.3511 22.64C91.4151 23.04 91.3271 23.4 91.0871 23.72C90.8951 23.96 90.6471 24.128 90.3431 24.224L90.3671 24.248C90.4951 24.536 90.5671 24.912 90.5831 25.376C90.5991 25.504 90.5991 25.688 90.5831 25.928C90.5831 26.152 90.5911 26.304 90.6071 26.384C90.7191 26.88 90.8391 27.448 90.9671 28.088C90.9991 28.28 91.0231 28.4 91.0391 28.448C91.0711 28.496 91.1111 28.544 91.1591 28.592L92.1911 29.6C92.5431 29.952 92.6951 30.32 92.6471 30.704C92.6151 31.088 92.4631 31.416 92.1911 31.688C91.9191 31.96 91.5831 32.112 91.1831 32.144C90.7991 32.176 90.4391 32.024 90.1031 31.688L89.0951 30.704C88.7431 30.352 88.4951 30.032 88.3511 29.744L88.3271 29.672C88.3111 29.704 88.2471 29.792 88.1351 29.936L87.8711 30.272L87.5351 30.632C87.4071 30.776 87.2791 30.904 87.1511 31.016L86.7191 31.328C86.3991 31.552 86.0631 31.728 85.7111 31.856ZM84.7511 29.072C84.8151 29.056 84.8791 29.032 84.9431 29C85.0071 28.952 85.0631 28.904 85.1111 28.856C85.1431 28.84 85.2471 28.736 85.4231 28.544C85.5991 28.336 85.7351 28.184 85.8311 28.088L86.1431 27.68C86.2551 27.552 86.4071 27.256 86.5991 26.792C86.6151 26.728 86.6311 26.568 86.6471 26.312C86.6791 26.056 86.7031 25.856 86.7191 25.712C86.8311 24.608 87.2791 23.864 88.0631 23.48C88.1271 23.448 88.1911 23.424 88.2551 23.408L87.8711 23.024C87.5511 22.752 87.2871 22.576 87.0791 22.496C85.5751 21.872 84.3991 22.064 83.5511 23.072C83.1191 23.552 82.8071 24.176 82.6151 24.944C82.4231 25.696 82.3831 26.48 82.4951 27.296C82.5431 27.696 82.6951 28.048 82.9511 28.352C83.2071 28.656 83.4951 28.88 83.8151 29.024C84.1511 29.152 84.4631 29.168 84.7511 29.072ZM99.7284 30.56C99.7284 31.04 99.5764 31.408 99.2724 31.664C98.9684 31.904 98.6164 32.024 98.2164 32.024C97.8164 32.024 97.4644 31.896 97.1604 31.64C96.8724 31.384 96.7364 31.008 96.7524 30.512C96.7844 27.488 96.7764 24.752 96.7284 22.304C95.4484 22.304 94.6004 22.296 94.1844 22.28C93.7044 22.28 93.3364 22.128 93.0804 21.824C92.8404 21.52 92.7204 21.168 92.7204 20.768C92.7204 20.368 92.8484 20.024 93.1044 19.736C93.3604 19.432 93.7364 19.288 94.2324 19.304C98.8404 19.336 101.584 19.352 102.464 19.352C102.96 19.336 103.336 19.48 103.592 19.784C103.848 20.072 103.976 20.416 103.976 20.816C103.976 21.216 103.848 21.568 103.592 21.872C103.352 22.176 102.992 22.328 102.512 22.328C102.24 22.344 101.312 22.352 99.7284 22.352C99.7604 24.816 99.7604 27.552 99.7284 30.56ZM107.519 36.608C107.167 36.88 106.791 36.992 106.391 36.944C106.007 36.896 105.679 36.72 105.407 36.416C105.151 36.128 105.039 35.76 105.071 35.312C105.087 35.072 105.239 34.792 105.527 34.472C105.831 34.152 106.175 33.824 106.559 33.488C106.959 33.168 107.327 32.88 107.663 32.624C107.999 32.368 108.215 32.184 108.311 32.072V32.048C106.631 28.464 105.303 24.824 104.327 21.128C104.199 20.648 104.247 20.256 104.471 19.952C104.695 19.632 104.999 19.424 105.383 19.328C105.783 19.216 106.159 19.24 106.511 19.4C106.863 19.56 107.095 19.88 107.207 20.36C107.927 23.016 108.823 25.64 109.895 28.232C111.015 25.368 111.783 22.776 112.199 20.456C112.279 19.976 112.487 19.64 112.823 19.448C113.159 19.256 113.519 19.2 113.903 19.28C114.303 19.344 114.631 19.528 114.887 19.832C115.143 20.12 115.223 20.504 115.127 20.984C114.615 23.88 113.559 27.264 111.959 31.136C111.927 31.2 111.863 31.36 111.767 31.616L111.479 32.384C111.399 32.608 111.279 32.872 111.119 33.176C110.959 33.48 110.791 33.744 110.615 33.968C110.167 34.496 109.647 34.976 109.055 35.408C108.463 35.84 107.951 36.24 107.519 36.608ZM123.517 31.784C122.429 32.136 121.293 32.12 120.109 31.736C119.133 31.416 118.333 30.928 117.709 30.272C117.085 29.6 116.677 28.856 116.485 28.04C116.277 27.24 116.197 26.432 116.245 25.616C116.309 24.8 116.477 24.016 116.749 23.264C117.053 22.496 117.461 21.792 117.973 21.152C118.501 20.512 119.117 20.016 119.821 19.664C120.573 19.28 121.405 19.128 122.317 19.208C123.229 19.288 124.117 19.616 124.981 20.192C125.429 20.496 125.837 20.96 126.205 21.584L126.541 22.136C126.637 22.312 126.725 22.448 126.805 22.544C127.077 22.944 127.165 23.328 127.069 23.696C126.973 24.048 126.765 24.336 126.445 24.56C126.141 24.768 125.797 24.856 125.413 24.824C125.045 24.792 124.717 24.592 124.429 24.224C124.301 24.048 124.165 23.832 124.021 23.576L123.733 23.072C123.573 22.816 123.445 22.656 123.349 22.592C122.533 22.032 121.781 21.928 121.093 22.28C120.389 22.632 119.845 23.312 119.461 24.32C119.045 25.392 118.973 26.368 119.245 27.248C119.533 28.128 120.109 28.712 120.973 29C121.581 29.176 122.133 29.184 122.629 29.024C122.725 29.008 122.869 28.904 123.061 28.712L123.469 28.304C123.693 28.096 123.877 27.928 124.021 27.8C124.421 27.512 124.805 27.416 125.173 27.512C125.541 27.592 125.837 27.784 126.061 28.088C126.301 28.376 126.413 28.712 126.397 29.096C126.397 29.464 126.213 29.792 125.845 30.08C125.749 30.144 125.629 30.248 125.485 30.392L125.053 30.824C124.541 31.304 124.029 31.624 123.517 31.784ZM131.074 31.976C130.658 32.008 130.298 31.888 129.994 31.616C129.69 31.344 129.522 31 129.49 30.584C129.346 28.472 129.162 25.184 128.938 20.72C128.906 20.224 129.034 19.848 129.322 19.592C129.61 19.32 129.946 19.176 130.33 19.16C130.73 19.144 131.09 19.256 131.41 19.496C131.73 19.72 131.898 20.08 131.914 20.576L132.082 23.456C132.754 23.328 133.298 23.24 133.714 23.192C135.09 23.016 136.194 23.064 137.026 23.336C138.034 23.672 138.85 24.192 139.474 24.896C140.114 25.6 140.434 26.416 140.434 27.344C140.45 28.256 140.154 29.088 139.546 29.84C138.954 30.576 138.154 31.16 137.146 31.592C136.762 31.752 136.362 31.88 135.946 31.976C135.546 32.056 135.106 32.096 134.626 32.096C134.434 32.096 134.178 32.088 133.858 32.072C133.538 32.072 133.202 32.064 132.85 32.048C132.514 32.032 132.21 32.016 131.938 32C131.682 31.968 131.514 31.936 131.434 31.904C131.322 31.952 131.202 31.976 131.074 31.976ZM132.37 29C133.074 29.08 133.738 29.12 134.362 29.12C134.986 29.104 135.53 29 135.994 28.808C136.442 28.616 136.794 28.392 137.05 28.136C137.306 27.864 137.434 27.616 137.434 27.392C137.434 27.168 137.322 26.952 137.098 26.744C136.874 26.52 136.53 26.328 136.066 26.168C135.682 26.04 135.026 26.04 134.098 26.168C133.666 26.216 133.042 26.32 132.226 26.48L132.37 29ZM140.89 30.464C140.89 25.68 140.93 22.424 141.01 20.696C141.026 20.2 141.194 19.84 141.514 19.616C141.834 19.376 142.186 19.264 142.57 19.28C142.97 19.296 143.314 19.44 143.602 19.712C143.89 19.968 144.018 20.344 143.986 20.84C143.906 22.344 143.866 25.552 143.866 30.464C143.866 30.96 143.714 31.328 143.41 31.568C143.122 31.808 142.778 31.928 142.378 31.928C141.978 31.928 141.626 31.808 141.322 31.568C141.034 31.328 140.89 30.96 140.89 30.464ZM157.538 32.312C156.498 32.312 155.594 32.12 154.826 31.736C154.058 31.368 153.474 30.912 153.074 30.368C152.674 29.824 152.474 29.312 152.474 28.832C152.474 28.416 152.594 28.072 152.834 27.8C153.074 27.512 153.386 27.368 153.77 27.368C154.17 27.368 154.538 27.576 154.874 27.992C155.258 28.472 155.65 28.872 156.05 29.192C156.45 29.512 157.018 29.672 157.754 29.672C158.314 29.672 158.778 29.52 159.146 29.216C159.53 28.912 159.722 28.568 159.722 28.184C159.722 27.752 159.522 27.4 159.122 27.128C158.738 26.84 158.234 26.696 157.61 26.696C157.114 26.696 156.714 26.576 156.41 26.336C156.122 26.08 155.978 25.768 155.978 25.4C155.978 25.016 156.114 24.712 156.386 24.488C156.658 24.248 156.994 24.128 157.394 24.128C158.018 24.128 158.514 24 158.882 23.744C159.25 23.472 159.434 23.136 159.434 22.736C159.434 22.4 159.282 22.136 158.978 21.944C158.674 21.736 158.25 21.632 157.706 21.632C157.05 21.632 156.506 21.792 156.074 22.112C155.642 22.416 155.37 22.824 155.258 23.336C155.082 24.12 154.674 24.512 154.034 24.512C153.666 24.512 153.378 24.392 153.17 24.152C152.962 23.896 152.858 23.584 152.858 23.216C152.858 22.496 153.066 21.832 153.482 21.224C153.898 20.616 154.474 20.136 155.21 19.784C155.962 19.416 156.81 19.232 157.754 19.232C158.49 19.232 159.21 19.384 159.914 19.688C160.602 20.008 161.162 20.44 161.594 20.984C162.042 21.528 162.266 22.136 162.266 22.808C162.266 23.384 162.098 23.928 161.762 24.44C161.442 24.952 160.986 25.368 160.394 25.688V24.992C161.85 25.616 162.578 26.608 162.578 27.968C162.578 28.72 162.37 29.424 161.954 30.08C161.538 30.752 160.946 31.296 160.178 31.712C159.41 32.112 158.53 32.312 157.538 32.312ZM170.297 31.856C169.529 32.096 168.793 32.144 168.089 32C167.401 31.84 166.769 31.552 166.193 31.136C165.633 30.704 165.169 30.184 164.801 29.576C164.449 28.968 164.233 28.328 164.153 27.656C163.993 26.472 164.057 25.304 164.345 24.152C164.649 22.984 165.161 21.984 165.881 21.152C166.681 20.192 167.665 19.584 168.833 19.328C170.001 19.056 171.321 19.2 172.793 19.76C173.289 19.952 173.817 20.288 174.377 20.768C174.441 20.848 174.537 20.944 174.665 21.056L175.049 21.392C175.161 21.488 175.273 21.576 175.385 21.656C175.705 21.896 175.889 22.224 175.937 22.64C176.001 23.04 175.913 23.4 175.673 23.72C175.481 23.96 175.233 24.128 174.929 24.224L174.953 24.248C175.081 24.536 175.153 24.912 175.169 25.376C175.185 25.504 175.185 25.688 175.169 25.928C175.169 26.152 175.177 26.304 175.193 26.384C175.305 26.88 175.425 27.448 175.553 28.088C175.585 28.28 175.609 28.4 175.625 28.448C175.657 28.496 175.697 28.544 175.745 28.592L176.777 29.6C177.129 29.952 177.281 30.32 177.233 30.704C177.201 31.088 177.049 31.416 176.777 31.688C176.505 31.96 176.169 32.112 175.769 32.144C175.385 32.176 175.025 32.024 174.689 31.688L173.681 30.704C173.329 30.352 173.081 30.032 172.937 29.744L172.913 29.672C172.897 29.704 172.833 29.792 172.721 29.936L172.457 30.272L172.121 30.632C171.993 30.776 171.865 30.904 171.737 31.016L171.305 31.328C170.985 31.552 170.649 31.728 170.297 31.856ZM169.337 29.072C169.401 29.056 169.465 29.032 169.529 29C169.593 28.952 169.649 28.904 169.697 28.856C169.729 28.84 169.833 28.736 170.009 28.544C170.185 28.336 170.321 28.184 170.417 28.088L170.729 27.68C170.841 27.552 170.993 27.256 171.185 26.792C171.201 26.728 171.217 26.568 171.233 26.312C171.265 26.056 171.289 25.856 171.305 25.712C171.417 24.608 171.865 23.864 172.649 23.48C172.713 23.448 172.777 23.424 172.841 23.408L172.457 23.024C172.137 22.752 171.873 22.576 171.665 22.496C170.161 21.872 168.985 22.064 168.137 23.072C167.705 23.552 167.393 24.176 167.201 24.944C167.009 25.696 166.969 26.48 167.081 27.296C167.129 27.696 167.281 28.048 167.537 28.352C167.793 28.656 168.081 28.88 168.401 29.024C168.737 29.152 169.049 29.168 169.337 29.072ZM187.53 31.52C185.914 29.792 184.57 28.192 183.498 26.72L181.794 28.28C181.858 28.968 181.938 29.656 182.034 30.344C182.098 30.824 181.994 31.208 181.722 31.496C181.45 31.784 181.122 31.96 180.738 32.024C180.354 32.088 179.994 32.024 179.658 31.832C179.338 31.624 179.138 31.272 179.058 30.776C178.658 27.928 178.538 24.56 178.698 20.672C178.714 20.176 178.882 19.816 179.202 19.592C179.522 19.352 179.874 19.24 180.258 19.256C180.658 19.272 181.002 19.416 181.29 19.688C181.578 19.944 181.706 20.32 181.674 20.816C181.626 22.112 181.602 23.304 181.602 24.392L186.858 19.592C187.226 19.256 187.602 19.12 187.986 19.184C188.37 19.232 188.69 19.408 188.946 19.712C189.218 20 189.362 20.344 189.378 20.744C189.41 21.128 189.242 21.48 188.874 21.8L185.73 24.68C186.77 26.168 188.122 27.776 189.786 29.504C190.106 29.888 190.234 30.272 190.17 30.656C190.122 31.04 189.946 31.36 189.642 31.616C189.354 31.872 189.01 32.008 188.61 32.024C188.226 32.056 187.866 31.888 187.53 31.52ZM196.992 31.856C196.224 32.096 195.488 32.144 194.784 32C194.096 31.84 193.464 31.552 192.888 31.136C192.328 30.704 191.864 30.184 191.496 29.576C191.144 28.968 190.928 28.328 190.848 27.656C190.688 26.472 190.752 25.304 191.04 24.152C191.344 22.984 191.856 21.984 192.576 21.152C193.376 20.192 194.36 19.584 195.528 19.328C196.696 19.056 198.016 19.2 199.488 19.76C199.984 19.952 200.512 20.288 201.072 20.768C201.136 20.848 201.232 20.944 201.36 21.056L201.744 21.392C201.856 21.488 201.968 21.576 202.08 21.656C202.4 21.896 202.584 22.224 202.632 22.64C202.696 23.04 202.608 23.4 202.368 23.72C202.176 23.96 201.928 24.128 201.624 24.224L201.648 24.248C201.776 24.536 201.848 24.912 201.864 25.376C201.88 25.504 201.88 25.688 201.864 25.928C201.864 26.152 201.872 26.304 201.888 26.384C202 26.88 202.12 27.448 202.248 28.088C202.28 28.28 202.304 28.4 202.32 28.448C202.352 28.496 202.392 28.544 202.44 28.592L203.472 29.6C203.824 29.952 203.976 30.32 203.928 30.704C203.896 31.088 203.744 31.416 203.472 31.688C203.2 31.96 202.864 32.112 202.464 32.144C202.08 32.176 201.72 32.024 201.384 31.688L200.376 30.704C200.024 30.352 199.776 30.032 199.632 29.744L199.608 29.672C199.592 29.704 199.528 29.792 199.416 29.936L199.152 30.272L198.816 30.632C198.688 30.776 198.56 30.904 198.432 31.016L198 31.328C197.68 31.552 197.344 31.728 196.992 31.856ZM196.032 29.072C196.096 29.056 196.16 29.032 196.224 29C196.288 28.952 196.344 28.904 196.392 28.856C196.424 28.84 196.528 28.736 196.704 28.544C196.88 28.336 197.016 28.184 197.112 28.088L197.424 27.68C197.536 27.552 197.688 27.256 197.88 26.792C197.896 26.728 197.912 26.568 197.928 26.312C197.96 26.056 197.984 25.856 198 25.712C198.112 24.608 198.56 23.864 199.344 23.48C199.408 23.448 199.472 23.424 199.536 23.408L199.152 23.024C198.832 22.752 198.568 22.576 198.36 22.496C196.856 21.872 195.68 22.064 194.832 23.072C194.4 23.552 194.088 24.176 193.896 24.944C193.704 25.696 193.664 26.48 193.776 27.296C193.824 27.696 193.976 28.048 194.232 28.352C194.488 28.656 194.776 28.88 195.096 29.024C195.432 29.152 195.744 29.168 196.032 29.072ZM209.57 32.312C208.53 32.312 207.626 32.12 206.858 31.736C206.09 31.368 205.506 30.912 205.106 30.368C204.706 29.824 204.506 29.312 204.506 28.832C204.506 28.416 204.626 28.072 204.866 27.8C205.106 27.512 205.418 27.368 205.802 27.368C206.202 27.368 206.57 27.576 206.906 27.992C207.29 28.472 207.682 28.872 208.082 29.192C208.482 29.512 209.05 29.672 209.786 29.672C210.346 29.672 210.81 29.52 211.178 29.216C211.562 28.912 211.754 28.568 211.754 28.184C211.754 27.752 211.554 27.4 211.154 27.128C210.77 26.84 210.266 26.696 209.642 26.696C209.146 26.696 208.746 26.576 208.442 26.336C208.154 26.08 208.01 25.768 208.01 25.4C208.01 25.016 208.146 24.712 208.418 24.488C208.69 24.248 209.026 24.128 209.426 24.128C210.05 24.128 210.546 24 210.914 23.744C211.282 23.472 211.466 23.136 211.466 22.736C211.466 22.4 211.314 22.136 211.01 21.944C210.706 21.736 210.282 21.632 209.738 21.632C209.082 21.632 208.538 21.792 208.106 22.112C207.674 22.416 207.402 22.824 207.29 23.336C207.114 24.12 206.706 24.512 206.066 24.512C205.698 24.512 205.41 24.392 205.202 24.152C204.994 23.896 204.89 23.584 204.89 23.216C204.89 22.496 205.098 21.832 205.514 21.224C205.93 20.616 206.506 20.136 207.242 19.784C207.994 19.416 208.842 19.232 209.786 19.232C210.522 19.232 211.242 19.384 211.946 19.688C212.634 20.008 213.194 20.44 213.626 20.984C214.074 21.528 214.298 22.136 214.298 22.808C214.298 23.384 214.13 23.928 213.794 24.44C213.474 24.952 213.018 25.368 212.426 25.688V24.992C213.882 25.616 214.61 26.608 214.61 27.968C214.61 28.72 214.402 29.424 213.986 30.08C213.57 30.752 212.978 31.296 212.21 31.712C211.442 32.112 210.562 32.312 209.57 32.312ZM222.328 31.856C221.56 32.096 220.824 32.144 220.12 32C219.432 31.84 218.8 31.552 218.224 31.136C217.664 30.704 217.2 30.184 216.832 29.576C216.48 28.968 216.264 28.328 216.184 27.656C216.024 26.472 216.088 25.304 216.376 24.152C216.68 22.984 217.192 21.984 217.912 21.152C218.712 20.192 219.696 19.584 220.864 19.328C222.032 19.056 223.352 19.2 224.824 19.76C225.32 19.952 225.848 20.288 226.408 20.768C226.472 20.848 226.568 20.944 226.696 21.056L227.08 21.392C227.192 21.488 227.304 21.576 227.416 21.656C227.736 21.896 227.92 22.224 227.968 22.64C228.032 23.04 227.944 23.4 227.704 23.72C227.512 23.96 227.264 24.128 226.96 24.224L226.984 24.248C227.112 24.536 227.184 24.912 227.2 25.376C227.216 25.504 227.216 25.688 227.2 25.928C227.2 26.152 227.208 26.304 227.224 26.384C227.336 26.88 227.456 27.448 227.584 28.088C227.616 28.28 227.64 28.4 227.656 28.448C227.688 28.496 227.728 28.544 227.776 28.592L228.808 29.6C229.16 29.952 229.312 30.32 229.264 30.704C229.232 31.088 229.08 31.416 228.808 31.688C228.536 31.96 228.2 32.112 227.8 32.144C227.416 32.176 227.056 32.024 226.72 31.688L225.712 30.704C225.36 30.352 225.112 30.032 224.968 29.744L224.944 29.672C224.928 29.704 224.864 29.792 224.752 29.936L224.488 30.272L224.152 30.632C224.024 30.776 223.896 30.904 223.768 31.016L223.336 31.328C223.016 31.552 222.68 31.728 222.328 31.856ZM221.368 29.072C221.432 29.056 221.496 29.032 221.56 29C221.624 28.952 221.68 28.904 221.728 28.856C221.76 28.84 221.864 28.736 222.04 28.544C222.216 28.336 222.352 28.184 222.448 28.088L222.76 27.68C222.872 27.552 223.024 27.256 223.216 26.792C223.232 26.728 223.248 26.568 223.264 26.312C223.296 26.056 223.32 25.856 223.336 25.712C223.448 24.608 223.896 23.864 224.68 23.48C224.744 23.448 224.808 23.424 224.872 23.408L224.488 23.024C224.168 22.752 223.904 22.576 223.696 22.496C222.192 21.872 221.016 22.064 220.168 23.072C219.736 23.552 219.424 24.176 219.232 24.944C219.04 25.696 219 26.48 219.112 27.296C219.16 27.696 219.312 28.048 219.568 28.352C219.824 28.656 220.112 28.88 220.432 29.024C220.768 29.152 221.08 29.168 221.368 29.072Z" fill="black"/>
</svg>
